ply
format ascii 1.0
comment Created by Blender 3.4.1 - www.blender.org
element vertex 14
property float x
property float y
property float z
property uchar red
property uchar green
property uchar blue
element face 6
property list uchar uint vertex_indices
end_header
1.000000 1.000000 1.000000 0 0 255
-1.000000 1.000000 1.000000 0 0 255
-1.000000 -1.000000 1.000000 0 0 255
1.000000 -1.000000 1.000000 0 0 255
1.000000 -1.000000 -1.000000 0 0 255
-1.000000 -1.000000 1.000000 0 0 255
-1.000000 -1.000000 -1.000000 0 0 255
-1.000000 -1.000000 -1.000000 0 0 255
-1.000000 -1.000000 1.000000 0 0 255
-1.000000 1.000000 1.000000 0 0 255
-1.000000 1.000000 -1.000000 0 0 255
-1.000000 1.000000 -1.000000 0 0 255
1.000000 1.000000 -1.000000 0 0 255
-1.000000 -1.000000 -1.000000 0 0 255
4 0 1 2 3
4 4 3 5 6
4 7 8 9 10
4 11 12 4 13
4 12 0 3 4
4 10 9 0 12
